<?xml version="1.0" encoding="UTF-8"?>
<!DOCTYPE svg PUBLIC "-//W3C//DTD SVG 1.1//EN" "http://www.w3.org/Graphics/SVG/1.1/DTD/svg11.dtd">
<svg xmlns="http://www.w3.org/2000/svg" version="1.1" width="1000px" height="286px" style="shape-rendering:geometricPrecision; text-rendering:geometricPrecision; image-rendering:optimizeQuality; fill-rule:evenodd; clip-rule:evenodd" xmlns:xlink="http://www.w3.org/1999/xlink">
<g><path style="opacity:0.963" fill="#fe4d36" d="M 577.5,-0.5 C 582.833,-0.5 588.167,-0.5 593.5,-0.5C 612.801,8.56021 617.968,22.8935 609,42.5C 601.478,53.0116 591.311,56.8449 578.5,54C 559.466,46.2371 553.633,32.7371 561,13.5C 565.172,7.15304 570.672,2.48637 577.5,-0.5 Z"/></g>
<g><path style="opacity:0.971" fill="#fe4d36" d="M 110.5,285.5 C 102.833,285.5 95.1667,285.5 87.5,285.5C 39.8269,276.16 10.4936,247.827 -0.5,200.5C -0.5,190.5 -0.5,180.5 -0.5,170.5C 8.59116,128.235 33.9245,100.735 75.5,88C 118.144,79.9152 152.977,92.7486 180,126.5C 180.749,127.635 180.583,128.635 179.5,129.5C 168.988,136.923 158.655,144.59 148.5,152.5C 132.119,130.427 110.452,122.26 83.5,128C 49.9877,140.174 35.821,164.008 41,199.5C 48.1563,223.658 63.9896,238.491 88.5,244C 106.262,246.85 122.262,242.85 136.5,232C 140.733,227.767 144.9,223.6 149,219.5C 159.323,227.152 169.656,234.819 180,242.5C 167.939,261.165 151.106,273.998 129.5,281C 123.071,282.692 116.737,284.192 110.5,285.5 Z"/></g>
<g><path style="opacity:0.972" fill="#fe4d36" d="M 303.5,85.5 C 307.5,85.5 311.5,85.5 315.5,85.5C 315.5,100.5 315.5,115.5 315.5,130.5C 296.761,129.134 280.594,134.8 267,147.5C 261.762,154.313 258.428,161.979 257,170.5C 256.5,207.832 256.333,245.165 256.5,282.5C 242.833,282.5 229.167,282.5 215.5,282.5C 215.5,217.833 215.5,153.167 215.5,88.5C 229.167,88.5 242.833,88.5 256.5,88.5C 256.334,94.5092 256.501,100.509 257,106.5C 271.154,96.3363 286.654,89.3363 303.5,85.5 Z"/></g>
<g><path style="opacity:0.969" fill="#fe4d36" d="M 723.5,285.5 C 716.167,285.5 708.833,285.5 701.5,285.5C 677.923,282.212 657.59,272.212 640.5,255.5C 647.025,245.771 654.025,236.437 661.5,227.5C 676.129,240.157 693.129,247.157 712.5,248.5C 720.645,248.638 728.312,246.805 735.5,243C 742.085,237.643 744.251,230.809 742,222.5C 738.329,216.497 733.162,212.331 726.5,210C 712.5,205.667 698.5,201.333 684.5,197C 648.089,183.157 636.256,157.657 649,120.5C 659.157,99.4859 675.99,87.9859 699.5,86C 727.831,82.9482 753.164,90.1149 775.5,107.5C 768.521,117.804 761.188,127.804 753.5,137.5C 735.239,123.428 715.239,119.928 693.5,127C 682.91,136.367 682.91,145.7 693.5,155C 695.67,156.586 698.004,157.92 700.5,159C 716.241,164.136 731.908,169.469 747.5,175C 779.66,189.493 790.493,213.659 780,247.5C 773.043,263.123 761.543,273.956 745.5,280C 738.177,282.425 730.843,284.258 723.5,285.5 Z"/></g>
<g><path style="opacity:0.97" fill="#fe4d36" d="M 999.5,171.5 C 999.5,181.167 999.5,190.833 999.5,200.5C 948.162,200.167 896.829,200.5 845.5,201.5C 854.641,231.634 874.975,247.634 906.5,249.5C 927.949,248.776 945.282,240.109 958.5,223.5C 967.912,230.29 977.412,236.956 987,243.5C 987.315,244.908 986.982,246.241 986,247.5C 966.646,268.708 942.813,281.375 914.5,285.5C 907.167,285.5 899.833,285.5 892.5,285.5C 844.779,276.277 816.612,247.61 808,199.5C 803.539,154.928 820.039,120.761 857.5,97C 895.842,78.9405 932.176,82.2739 966.5,107C 985.347,124.527 996.347,146.027 999.5,171.5 Z M 900.5,121.5 C 931.009,122.029 951.009,136.696 960.5,165.5C 922.839,166.5 885.173,166.833 847.5,166.5C 855.141,139.535 872.808,124.535 900.5,121.5 Z"/></g>
<g><path style="opacity:0.976" fill="#fe4d36" d="M 450.5,285.5 C 443.167,285.5 435.833,285.5 428.5,285.5C 386.328,277.162 360.828,251.828 352,209.5C 351.5,169.168 351.333,128.835 351.5,88.5C 364.833,88.5 378.167,88.5 391.5,88.5C 391.333,126.501 391.5,164.501 392,202.5C 397.404,228.409 413.238,242.409 439.5,244.5C 466.177,242.33 482.01,227.997 487,201.5C 487.5,163.835 487.667,126.168 487.5,88.5C 500.833,88.5 514.167,88.5 527.5,88.5C 527.667,128.501 527.5,168.501 527,208.5C 521.685,239.472 505.185,262.306 477.5,277C 468.72,280.938 459.72,283.771 450.5,285.5 Z"/></g>
<g><path style="opacity:0.959" fill="#fe4d36" d="M 565.5,88.5 C 579.167,88.5 592.833,88.5 606.5,88.5C 606.5,153.167 606.5,217.833 606.5,282.5C 592.833,282.5 579.167,282.5 565.5,282.5C 565.5,217.833 565.5,153.167 565.5,88.5 Z"/></g>
</svg>
